HIERARCHY
ROOT Hips
{
	OFFSET 0.000000 0.000000 0.000000 
	CHANNELS 6 Xposition Yposition Zposition Zrotation Yrotation Xrotation
	JOINT LeftUpLeg
	{
		OFFSET 1.363060 -1.794630 0.839290 
		CHANNELS 3 Zrotation Yrotation Xrotation
		JOINT LeftLeg
		{
			OFFSET 2.448110 -6.726130 0.000000 
			CHANNELS 3 Zrotation Yrotation Xrotation
			JOINT LeftFoot
			{
				OFFSET 2.562200 -7.039590 0.000000 
				CHANNELS 3 Zrotation Yrotation Xrotation
				JOINT LeftToeBase
				{
					OFFSET 0.157640 -0.433110 2.322550 
					CHANNELS 3 Zrotation Yrotation Xrotation
					End Site
					{
						OFFSET 0.000000 0.000000 0.000000 
					}
				}
			}
		}
	}
	JOINT RightUpLeg
	{
		OFFSET -1.305520 -1.794630 0.839290 
		CHANNELS 3 Zrotation Yrotation Xrotation
		JOINT RightLeg
		{
			OFFSET -2.542530 -6.985550 0.000000 
			CHANNELS 3 Zrotation Yrotation Xrotation
			JOINT RightFoot
			{
				OFFSET -2.568260 -7.056230 0.000000 
				CHANNELS 3 Zrotation Yrotation Xrotation
				JOINT RightToeBase
				{
					OFFSET -0.164730 -0.452590 2.363150 
					CHANNELS 3 Zrotation Yrotation Xrotation
					End Site
					{
						OFFSET 0.000000 0.000000 0.000000 
					}
				}
			}
		}
	}
	JOINT Spine
	{
		OFFSET 0.028270 2.035590 -0.193380 
		CHANNELS 3 Zrotation Yrotation Xrotation
		JOINT Spine1
		{
			OFFSET 0.056720 2.048850 -0.042750 
			CHANNELS 3 Zrotation Yrotation Xrotation
			JOINT Neck1
			{
				OFFSET -0.054170 1.746240 0.172020 
				CHANNELS 3 Zrotation Yrotation Xrotation
				JOINT Head
				{
					OFFSET 0.104070 1.761360 -0.123970 
					CHANNELS 3 Zrotation Yrotation Xrotation
					End Site
					{
						OFFSET 0.000000 0.000000 0.000000 
					}
				}
			}
			JOINT LeftArm
			{
				OFFSET 3.362410 1.200890 -0.311210 
				CHANNELS 3 Zrotation Yrotation Xrotation
				JOINT LeftForeArm
				{
					OFFSET 4.983000 -0.000000 -0.000000 
					CHANNELS 3 Zrotation Yrotation Xrotation
					JOINT LeftHand
					{
						OFFSET 3.483560 -0.000000 -0.000000 
						CHANNELS 3 Zrotation Yrotation Xrotation
						JOINT LeftHandIndex1
						{
							OFFSET 0.715260 -0.000000 -0.000000 
							CHANNELS 3 Zrotation Yrotation Xrotation
							End Site
							{
								OFFSET 0.000000 0.000000 0.000000 
							}
						}
					}
				}
			}
			JOINT RightArm
			{
				OFFSET -3.136600 1.374050 -0.404650 
				CHANNELS 3 Zrotation Yrotation Xrotation
				JOINT RightForeArm
				{
					OFFSET -5.241900 -0.000000 -0.000000 
					CHANNELS 3 Zrotation Yrotation Xrotation
					JOINT RightHand
					{
						OFFSET -3.444170 -0.000000 -0.000000 
						CHANNELS 3 Zrotation Yrotation Xrotation
						JOINT RightHandIndex1
						{
							OFFSET -0.622530 -0.000000 -0.000000 
							CHANNELS 3 Zrotation Yrotation Xrotation
							End Site
							{
								OFFSET 0.000000 0.000000 0.000000 
							}
						}
					}
				}
			}
		}
	}
}
MOTION
Frames: 6
Frame Time: 0.041667
-0.857016 18.383284 21.322528 173.993513 1.307625 -155.782739 -36.919205 -25.818625 -29.119350 3.486036 11.218147 27.965855 0.374034 -8.326779 -33.444099 0.861300 -5.918100 -16.547100 45.282824 18.012577 -11.104117 -3.551679 -2.898668 8.195637 -1.122319 10.474423 -35.387664 -0.784300 5.653700 -15.782900 0.573243 -0.354092 -3.361747 2.636053 -1.933522 19.563921 24.015663 -2.337962 17.514201 5.152500 0.500500 3.070800 -90.809412 -9.633315 19.116291 30.959317 -36.273601 -9.770660 -0.489393 0.060407 -2.497217 -7.125000 0.000000 0.000000 99.445216 -1.435141 12.687206 -15.820279 23.787548 -3.010761 0.022205 -0.440492 -6.920762 7.125000 0.000000 0.000000 
-0.839973 18.394510 21.351510 174.364763 0.383376 -155.076985 -37.068913 -25.881671 -28.663055 3.419575 10.942514 27.192520 0.302617 -8.501256 -33.408768 0.855900 -5.899900 -16.494100 45.634706 18.507787 -11.946484 -3.466022 -3.050551 8.223113 -1.284011 9.681482 -35.480352 -0.659300 5.193300 -14.460800 0.984769 -0.807705 -3.974134 2.638348 -2.108010 19.269974 23.662966 -2.388245 17.755638 5.018200 0.494700 3.030400 -91.587163 -9.429958 17.696488 30.448386 -35.745027 -9.396640 -0.481369 0.086356 -0.111659 -7.125000 0.000000 0.000000 99.822637 -1.759078 11.111458 -16.100639 24.203507 -3.128064 0.019677 -0.431736 -5.409312 7.125000 0.000000 0.000000 
-0.822115 18.404102 21.381819 174.787819 -0.461518 -154.269948 -37.117837 -25.852158 -28.327240 3.359405 10.671241 26.421619 0.229592 -8.677506 -33.390525 0.845200 -5.863800 -16.389800 45.979819 19.322654 -12.938048 -3.359595 -3.234933 8.257110 -1.499612 8.719883 -35.706271 -0.689700 5.309300 -14.792800 1.376969 -1.183051 -4.530806 2.600066 -2.255219 19.078025 23.366527 -2.463023 17.950564 4.899200 0.474400 3.000700 -92.313691 -9.368588 16.239574 29.950791 -35.235769 -9.037940 -0.471472 0.113439 2.295665 -7.125000 0.000000 0.000000 100.199926 -1.994022 9.631254 -16.430274 24.688879 -3.264796 0.017679 -0.421672 -4.102719 7.125000 0.000000 0.000000 
-0.815277 18.409409 21.395596 175.270748 -0.961773 -153.550770 -37.169409 -25.819781 -27.979490 3.304568 10.398350 25.654828 0.153055 -8.860714 -33.363817 0.833700 -5.824900 -16.277200 46.332869 20.136386 -13.802211 -3.259006 -3.379383 8.245038 -1.627362 8.049104 -35.834188 -0.737100 5.484700 -15.296400 1.672224 -1.377384 -4.956772 2.421198 -2.311739 19.098568 23.055449 -2.530987 18.123005 4.777900 0.455000 2.970400 -93.058386 -9.299321 14.633335 29.490635 -34.769788 -8.709148 -0.458230 0.142208 4.758375 -7.125000 0.000000 0.000000 100.604123 -2.167289 8.182696 -16.741600 25.149180 -3.396754 0.016665 -0.411774 -2.754363 7.125000 0.000000 0.000000 
-0.823033 18.414410 21.384880 175.688082 -0.707632 -152.870775 -37.171265 -25.863579 -27.709467 3.249570 10.138802 24.900338 0.101957 -8.981731 -33.355679 0.815000 -5.760900 -16.092200 46.431345 20.929523 -14.860930 -3.209460 -3.576927 8.480059 -1.449610 8.284376 -35.718824 -0.704400 5.364400 -14.951000 1.757607 -1.260007 -5.246514 2.189865 -2.237654 19.393525 22.665332 -2.567035 18.291715 4.637600 0.448800 2.931600 -93.819786 -9.108088 12.788592 29.092350 -34.370466 -8.422494 -0.440459 0.173379 7.278955 -7.125000 0.000000 0.000000 101.129486 -2.521304 6.654587 -17.325626 25.983480 -3.647116 0.018553 -0.398778 -1.210298 7.125000 0.000000 0.000000 
-0.829462 18.421961 21.381921 176.605760 -0.975840 -152.434651 -36.760766 -25.941218 -27.429774 3.215577 9.874605 24.165501 0.048011 -9.100354 -33.379776 0.804200 -5.723400 -15.983900 47.354650 21.485404 -15.047125 -3.076692 -3.524344 8.087290 -1.490816 7.941268 -35.492875 -0.647600 5.147700 -14.330300 2.163347 -1.313853 -5.658569 1.812192 -2.172139 19.462749 22.229583 -2.550395 18.362708 4.484200 0.454500 2.825000 -94.561366 -8.760781 11.007951 28.735134 -34.007266 -8.172004 -0.419836 0.197010 9.768367 -7.125000 0.000000 0.000000 101.996012 -3.191857 4.099323 -18.279591 27.321062 -4.071600 0.021630 -0.376390 1.229071 7.125000 0.000000 0.000000 
